<svg width="82" height="40" viewBox="0 0 82 40" fill="none" xmlns="http://www.w3.org/2000/svg">
<path d="M41.6295 6.91806C42.4097 6.91806 43.1312 6.6422 43.7097 6.17593C43.7896 6.11147 43.8932 6.07998 44.0025 6.09947C44.1916 6.13096 44.3247 6.31986 44.3247 6.52526V9.80562L41.6281 6.91956L41.6295 6.91806Z" fill="#181816"/>
<path d="M41.6294 6.91797H40.8589C39.3696 6.91797 38.1622 8.2101 38.1622 9.80403V10.6286C38.1622 12.2225 39.3696 13.5147 40.8589 13.5147H41.6294C43.1187 13.5147 44.326 12.2225 44.326 10.6286V9.80403C44.326 8.2101 43.1187 6.91797 41.6294 6.91797Z" fill="#181816"/>
<path d="M19.2255 23.9782C19.2255 21.2901 21.9165 19.434 26.5478 18.9632L30.2222 18.5749C30.8176 18.4925 31.2056 18.2151 31.2056 17.7998C31.2056 16.9962 30.0934 16.4415 28.5146 16.4415C26.3418 16.4415 24.1159 17.4385 22.7458 18.9632L19.486 16.9677C20.2103 15.6649 21.3744 14.6409 22.9784 13.8928C24.5571 13.1447 26.3671 12.7563 28.4109 12.7563C33.4554 12.7563 36.6648 14.9183 36.6648 18.491V27.551H32.0602L31.207 24.7803H31.1804C30.0681 26.7474 27.7651 27.9393 24.8934 27.9393C21.4528 27.9393 19.2269 26.416 19.2269 23.9767L19.2255 23.9782ZM31.1006 21.5405V21.3186L27.4527 21.6784C25.668 21.8448 24.7883 22.3156 24.7883 23.0637C24.7883 23.8118 25.6162 24.2556 27.0395 24.2556C29.4462 24.2556 31.102 23.1746 31.102 21.5405H31.1006Z" fill="#181816"/>
<path d="M45.8068 6.88379H51.343V27.5525H45.8068V6.88379Z" fill="#181816"/>
<path d="M55.1786 33.2333C53.7035 32.818 52.5141 32.2633 51.6078 31.5707L53.2636 27.4417C54.8928 28.5782 57.1958 29.3818 59.1879 29.3818C62.3188 29.3818 64.3879 27.7746 64.3879 25.3083V24.2004H64.3626C63.5599 26.3338 61.4909 27.6921 59.0324 27.6921C55.4097 27.6921 53.1333 25.1989 53.1333 21.4582V13.2573H58.6961V20.5437C58.6961 22.4282 59.7048 23.6471 61.3354 23.6471C63.1719 23.6471 64.3879 22.3173 64.3879 20.2393V13.2573H69.9507V25.5587C69.9507 30.5737 65.8377 33.8705 59.6543 33.8705C58.1274 33.8705 56.6537 33.6486 55.1786 33.2333V33.2333Z" fill="#181816"/>
<path d="M81.18 18.437V27.5525H75.6438V19.7114C75.6438 17.9663 74.687 16.9408 73.0564 16.9408C71.1162 16.9408 69.9521 18.1882 69.9521 20.2931H64.3893V13.2556H69.0976L69.8218 16.3861H69.847C70.9593 14.1702 73.055 12.8403 75.6676 12.8403C79.0829 12.8403 81.2038 14.9738 81.1786 18.437H81.18Z" fill="#181816"/>
<path d="M0.0700041 20.404C0.0700041 15.8328 2.78628 12.8403 6.77033 12.8403C9.43477 12.8403 11.5823 14.1986 12.5391 16.497H12.5643V6.88379H18.1005V27.5525H13.4174L12.5895 24.3111H12.5643C11.6327 26.6109 9.45998 27.9408 6.79554 27.9408C2.78488 27.9408 0.0686035 24.9767 0.0686035 20.404H0.0700041ZM12.773 20.404C12.773 18.548 11.2979 17.2451 9.20222 17.2451C7.10653 17.2451 5.60621 18.548 5.60621 20.404C5.60621 22.2601 7.0547 23.563 9.20222 23.563C11.3497 23.563 12.773 22.2601 12.773 20.404Z" fill="#181816"/>
<path d="M38.4551 27.5526H44.0179V14.7085C43.3819 15.1193 42.6366 15.3547 41.841 15.3547H40.6334C39.8363 15.3547 39.0925 15.1178 38.4565 14.7085V27.5541L38.4551 27.5526Z" fill="#181816"/>
</svg>
